<svg width="467" height="13" viewBox="0 0 467 13" fill="none" xmlns="http://www.w3.org/2000/svg">
<path fill-rule="evenodd" clip-rule="evenodd" d="M457.746 11.2952C461.462 11.2952 463.347 9.16196 465.011 7.28243C465.436 6.79844 465.399 6.05603 464.923 5.62373C464.447 5.19144 463.717 5.22903 463.292 5.71301C461.757 7.44688 460.431 8.94582 457.746 8.94582C455.056 8.94582 453.734 7.44688 452.2 5.71301C450.536 3.83347 448.655 1.7002 444.94 1.7002C441.224 1.7002 439.338 3.83347 437.675 5.71301C436.14 7.44688 434.818 8.94582 432.129 8.94582C429.439 8.94582 428.117 7.44688 426.583 5.71301C424.919 3.83347 423.038 1.7002 419.318 1.7002C415.602 1.7002 413.716 3.83347 412.057 5.71301C410.523 7.44688 409.196 8.94582 406.511 8.94582C403.826 8.94582 402.5 7.44688 400.965 5.71301C399.302 3.83347 397.421 1.7002 393.705 1.7002C389.989 1.7002 388.104 3.83347 386.444 5.71301C384.91 7.44688 383.588 8.94582 380.899 8.94582C378.209 8.94582 376.887 7.44688 375.353 5.71301L375.524 5.90566C375.487 5.83988 375.441 5.7741 375.385 5.71301C373.721 3.83347 371.84 1.7002 368.12 1.7002C364.404 1.7002 362.519 3.83347 360.855 5.71301C359.321 7.44688 357.994 8.94582 355.309 8.94582C352.619 8.94582 351.298 7.44688 349.763 5.71301C348.099 3.83347 346.218 1.7002 342.503 1.7002C338.787 1.7002 336.901 3.83347 335.242 5.71301C333.708 7.44688 332.386 8.94582 329.696 8.94582C327.007 8.94582 325.685 7.44688 324.15 5.71301C322.487 3.83347 320.606 1.7002 316.89 1.7002C313.174 1.7002 311.289 3.83347 309.63 5.71301C308.095 7.44688 306.773 8.94582 304.084 8.94582C301.394 8.94582 300.072 7.44688 298.538 5.71301C296.874 3.83347 294.993 1.7002 291.277 1.7002C287.562 1.7002 285.676 3.83347 284.017 5.71301L283.998 5.73181C283.564 6.21579 283.601 6.9582 284.077 7.3905C284.553 7.82279 285.279 7.7852 285.708 7.30122L285.727 7.28243C287.261 5.54855 288.583 4.04962 291.273 4.04962C293.962 4.04962 295.284 5.54855 296.819 7.28243C298.482 9.16196 300.363 11.2952 304.079 11.2952C307.795 11.2952 309.68 9.16196 311.339 7.28243C312.874 5.54855 314.196 4.04962 316.885 4.04962C319.575 4.04962 320.897 5.54855 322.431 7.28243C324.095 9.16196 325.976 11.2952 329.692 11.2952C333.407 11.2952 335.293 9.16196 336.952 7.28243C338.487 5.54855 339.808 4.04962 342.498 4.04962C345.188 4.04962 346.51 5.54855 348.044 7.28243C349.708 9.16196 351.589 11.2952 355.304 11.2952C359.02 11.2952 360.906 9.16196 362.57 7.28243C364.104 5.54855 365.426 4.04962 368.115 4.04962C370.694 4.04962 372.016 5.42638 373.476 7.07098C373.513 7.13676 373.56 7.20254 373.615 7.26363L373.634 7.28243C375.297 9.16196 377.178 11.2952 380.894 11.2952C384.61 11.2952 386.495 9.16196 388.154 7.28243C389.689 5.54855 391.011 4.04962 393.7 4.04962C396.39 4.04962 397.712 5.54855 399.246 7.28243C400.91 9.16196 402.791 11.2952 406.507 11.2952C410.222 11.2952 412.108 9.16196 413.767 7.28243C415.302 5.54855 416.628 4.04962 419.313 4.04962C422.003 4.04962 423.325 5.54855 424.859 7.28243C426.523 9.16196 428.404 11.2952 432.119 11.2952C435.835 11.2952 437.721 9.16196 439.385 7.28243C440.919 5.54855 442.241 4.04962 444.93 4.04962C447.62 4.04962 448.942 5.54855 450.476 7.28243C452.149 9.16666 454.03 11.2952 457.746 11.2952Z" fill="#26C6D0" stroke="#26C6D0" stroke-width="3" stroke-miterlimit="10" stroke-linejoin="round"/>
<path fill-rule="evenodd" clip-rule="evenodd" d="M278.746 11.2952C282.462 11.2952 284.347 9.16196 286.011 7.28243C286.436 6.79844 286.399 6.05603 285.923 5.62373C285.447 5.19144 284.717 5.22903 284.292 5.71301C282.757 7.44688 281.431 8.94582 278.746 8.94582C276.056 8.94582 274.734 7.44688 273.2 5.71301C271.536 3.83347 269.655 1.7002 265.94 1.7002C262.224 1.7002 260.338 3.83347 258.675 5.71301C257.14 7.44688 255.818 8.94582 253.129 8.94582C250.439 8.94582 249.117 7.44688 247.583 5.71301C245.919 3.83347 244.038 1.7002 240.318 1.7002C236.602 1.7002 234.716 3.83347 233.057 5.71301C231.523 7.44688 230.196 8.94582 227.511 8.94582C224.826 8.94582 223.5 7.44688 221.965 5.71301C220.302 3.83347 218.421 1.7002 214.705 1.7002C210.989 1.7002 209.104 3.83347 207.444 5.71301C205.91 7.44688 204.588 8.94582 201.899 8.94582C199.209 8.94582 197.887 7.44688 196.353 5.71301L196.524 5.90566C196.487 5.83988 196.441 5.7741 196.385 5.71301C194.721 3.83347 192.84 1.7002 189.12 1.7002C185.404 1.7002 183.519 3.83347 181.855 5.71301C180.321 7.44688 178.994 8.94582 176.309 8.94582C173.619 8.94582 172.298 7.44688 170.763 5.71301C169.099 3.83347 167.218 1.7002 163.503 1.7002C159.787 1.7002 157.901 3.83347 156.242 5.71301C154.708 7.44688 153.386 8.94582 150.696 8.94582C148.007 8.94582 146.685 7.44688 145.15 5.71301C143.487 3.83347 141.606 1.7002 137.89 1.7002C134.174 1.7002 132.289 3.83347 130.63 5.71301C129.095 7.44688 127.773 8.94582 125.084 8.94582C122.394 8.94582 121.072 7.44688 119.538 5.71301C117.874 3.83347 115.993 1.7002 112.277 1.7002C108.562 1.7002 106.676 3.83347 105.017 5.71301L104.998 5.73181C104.564 6.21579 104.601 6.9582 105.077 7.3905C105.553 7.82279 106.279 7.7852 106.708 7.30122L106.727 7.28243C108.261 5.54855 109.583 4.04962 112.273 4.04962C114.962 4.04962 116.284 5.54855 117.819 7.28243C119.482 9.16196 121.363 11.2952 125.079 11.2952C128.795 11.2952 130.68 9.16196 132.339 7.28243C133.874 5.54855 135.196 4.04962 137.885 4.04962C140.575 4.04962 141.897 5.54855 143.431 7.28243C145.095 9.16196 146.976 11.2952 150.692 11.2952C154.407 11.2952 156.293 9.16196 157.952 7.28243C159.487 5.54855 160.808 4.04962 163.498 4.04962C166.188 4.04962 167.51 5.54855 169.044 7.28243C170.708 9.16196 172.589 11.2952 176.304 11.2952C180.02 11.2952 181.906 9.16196 183.57 7.28243C185.104 5.54855 186.426 4.04962 189.115 4.04962C191.694 4.04962 193.016 5.42638 194.476 7.07098C194.513 7.13676 194.56 7.20254 194.615 7.26363L194.634 7.28243C196.297 9.16196 198.178 11.2952 201.894 11.2952C205.61 11.2952 207.495 9.16196 209.154 7.28243C210.689 5.54855 212.011 4.04962 214.7 4.04962C217.39 4.04962 218.712 5.54855 220.246 7.28243C221.91 9.16196 223.791 11.2952 227.507 11.2952C231.222 11.2952 233.108 9.16196 234.767 7.28243C236.302 5.54855 237.628 4.04962 240.313 4.04962C243.003 4.04962 244.325 5.54855 245.859 7.28243C247.523 9.16196 249.404 11.2952 253.119 11.2952C256.835 11.2952 258.721 9.16196 260.385 7.28243C261.919 5.54855 263.241 4.04962 265.93 4.04962C268.62 4.04962 269.942 5.54855 271.476 7.28243C273.149 9.16666 275.03 11.2952 278.746 11.2952Z" fill="#26C6D0" stroke="#26C6D0" stroke-width="3" stroke-miterlimit="10" stroke-linejoin="round"/>
<path fill-rule="evenodd" clip-rule="evenodd" d="M175.746 11.2952C179.462 11.2952 181.347 9.16196 183.011 7.28243C183.436 6.79844 183.399 6.05603 182.923 5.62373C182.447 5.19144 181.717 5.22903 181.292 5.71301C179.757 7.44688 178.431 8.94582 175.746 8.94582C173.056 8.94582 171.734 7.44688 170.2 5.71301C168.536 3.83347 166.655 1.7002 162.94 1.7002C159.224 1.7002 157.338 3.83347 155.675 5.71301C154.14 7.44688 152.818 8.94582 150.129 8.94582C147.439 8.94582 146.117 7.44688 144.583 5.71301C142.919 3.83347 141.038 1.7002 137.318 1.7002C133.602 1.7002 131.716 3.83347 130.057 5.71301C128.523 7.44688 127.196 8.94582 124.511 8.94582C121.826 8.94582 120.5 7.44688 118.965 5.71301C117.302 3.83347 115.421 1.7002 111.705 1.7002C107.989 1.7002 106.104 3.83347 104.444 5.71301C102.91 7.44688 101.588 8.94582 98.8986 8.94582C96.2089 8.94582 94.8871 7.44688 93.3528 5.71301L93.5237 5.90566C93.4868 5.83988 93.4406 5.7741 93.3851 5.71301C91.7213 3.83347 89.8404 1.7002 86.12 1.7002C82.4043 1.7002 80.5187 3.83347 78.8549 5.71301C77.3205 7.44688 75.9942 8.94582 73.309 8.94582C70.6193 8.94582 69.2975 7.44688 67.7632 5.71301C66.0994 3.83347 64.2184 1.7002 60.5027 1.7002C56.7869 1.7002 54.9014 3.83347 53.2422 5.71301C51.7079 7.44688 50.3861 8.94582 47.6963 8.94582C45.0066 8.94582 43.6848 7.44688 42.1505 5.71301C40.4867 3.83347 38.6057 1.7002 34.89 1.7002C31.1743 1.7002 29.2887 3.83347 27.6295 5.71301C26.0952 7.44688 24.7734 8.94582 22.0836 8.94582C19.3939 8.94582 18.0721 7.44688 16.5378 5.71301C14.874 3.83347 12.993 1.7002 9.27729 1.7002C5.56156 1.7002 3.67596 3.83347 2.01682 5.71301L1.99833 5.73181C1.56391 6.21579 1.60088 6.9582 2.0769 7.3905C2.55292 7.82279 3.27851 7.7852 3.70831 7.30122L3.7268 7.28243C5.26116 5.54855 6.58292 4.04962 9.27267 4.04962C11.9624 4.04962 13.2842 5.54855 14.8185 7.28243C16.4823 9.16196 18.3633 11.2952 22.079 11.2952C25.7948 11.2952 27.6804 9.16196 29.3395 7.28243C30.8739 5.54855 32.1956 4.04962 34.8854 4.04962C37.5751 4.04962 38.8969 5.54855 40.4312 7.28243C42.095 9.16196 43.976 11.2952 47.6917 11.2952C51.4075 11.2952 53.293 9.16196 54.9522 7.28243C56.4865 5.54855 57.8083 4.04962 60.4981 4.04962C63.1878 4.04962 64.5096 5.54855 66.0439 7.28243C67.7077 9.16196 69.5887 11.2952 73.3044 11.2952C77.0201 11.2952 78.9057 9.16196 80.5695 7.28243C82.1039 5.54855 83.4256 4.04962 86.1154 4.04962C88.6942 4.04962 90.016 5.42638 91.4764 7.07098C91.5134 7.13676 91.5596 7.20254 91.615 7.26363L91.6335 7.28243C93.2973 9.16196 95.1783 11.2952 98.894 11.2952C102.61 11.2952 104.495 9.16196 106.154 7.28243C107.689 5.54855 109.011 4.04962 111.7 4.04962C114.39 4.04962 115.712 5.54855 117.246 7.28243C118.91 9.16196 120.791 11.2952 124.507 11.2952C128.222 11.2952 130.108 9.16196 131.767 7.28243C133.302 5.54855 134.628 4.04962 137.313 4.04962C140.003 4.04962 141.325 5.54855 142.859 7.28243C144.523 9.16196 146.404 11.2952 150.119 11.2952C153.835 11.2952 155.721 9.16196 157.385 7.28243C158.919 5.54855 160.241 4.04962 162.93 4.04962C165.62 4.04962 166.942 5.54855 168.476 7.28243C170.149 9.16666 172.03 11.2952 175.746 11.2952Z" fill="#26C6D0" stroke="#26C6D0" stroke-width="3" stroke-miterlimit="10" stroke-linejoin="round"/>
</svg>
