<svg width="32" height="32" viewBox="0 0 32 32" fill="none" xmlns="http://www.w3.org/2000/svg">
<path fill-rule="evenodd" clip-rule="evenodd" d="M1.36036 7.58621C1.24024 7.42529 1.15015 7.25862 1.09009 7.08621C1.03003 6.91379 1 6.71264 1 6.48276C1 6.27586 1.03003 6.08046 1.09009 5.89655C1.15015 5.71264 1.24024 5.55172 1.36036 5.41379C1.48048 5.27586 1.62062 5.17241 1.78078 5.10345C1.94094 5.03448 2.11111 5 2.29129 5H29.7087C29.8889 5 30.0591 5.03448 30.2192 5.10345C30.3794 5.17241 30.5195 5.27586 30.6396 5.41379C30.7598 5.55172 30.8498 5.71264 30.9099 5.89655C30.97 6.08046 31 6.27586 31 6.48276C31 6.71264 30.97 6.91379 30.9099 7.08621C30.8498 7.25862 30.7598 7.42529 30.6396 7.58621C30.5195 7.72414 30.3794 7.82759 30.2192 7.89655C30.0591 7.96552 29.8889 8 29.7087 8H2.29129C2.11111 8 1.94094 7.96552 1.78078 7.89655C1.62062 7.82759 1.48048 7.72414 1.36036 7.58621ZM30.6396 15.4186C30.7598 15.5581 30.8498 15.7209 30.9099 15.907C30.97 16.093 31 16.2907 31 16.5C31 16.7093 30.97 16.907 30.9099 17.093C30.8498 17.2791 30.7598 17.4419 30.6396 17.5814C30.5195 17.7209 30.3794 17.8256 30.2192 17.8953C30.0591 17.9651 29.8889 18 29.7087 18H2.29129C2.11111 18 1.94094 17.9651 1.78078 17.8953C1.62062 17.8256 1.48048 17.7209 1.36036 17.5814C1.24024 17.4419 1.15015 17.2791 1.09009 17.093C1.03003 16.907 1 16.7093 1 16.5C1 16.2907 1.03003 16.093 1.09009 15.907C1.15015 15.7209 1.24024 15.5581 1.36036 15.4186C1.48048 15.2791 1.62062 15.1744 1.78078 15.1047C1.94094 15.0349 2.11111 15 2.29129 15H29.7087C29.8889 15 30.0591 15.0349 30.2192 15.1047C30.3794 15.1744 30.5195 15.2791 30.6396 15.4186ZM30.6326 24.4138C30.7551 24.5517 30.8469 24.7126 30.9081 24.8966C30.9694 25.0805 31 25.2759 31 25.4828C31 25.7126 30.9694 25.9138 30.9081 26.0862C30.8469 26.2586 30.7551 26.4253 30.6326 26.5862C30.5101 26.7241 30.3672 26.8276 30.2039 26.8966C30.0406 26.9655 29.8671 27 29.6834 27H6.31661C6.1329 27 5.95939 26.9655 5.79609 26.8966C5.63279 26.8276 5.4899 26.7241 5.36743 26.5862C5.24495 26.4253 5.15309 26.2586 5.09186 26.0862C5.03062 25.9138 5 25.7126 5 25.4828C5 25.2759 5.03062 25.0805 5.09186 24.8966C5.15309 24.7126 5.24495 24.5517 5.36743 24.4138C5.4899 24.2759 5.63279 24.1724 5.79609 24.1034C5.95939 24.0345 6.1329 24 6.31661 24H29.6834C29.8671 24 30.0406 24.0345 30.2039 24.1034C30.3672 24.1724 30.5101 24.2759 30.6326 24.4138Z" fill="white"/>
</svg>
