<svg width="32" height="32" viewBox="0 0 32 32" fill="none" xmlns="http://www.w3.org/2000/svg">
<circle cx="16" cy="16" r="16" fill="#26C6D0"/>
<path d="M27.9778 15.0136C28.0088 14.934 28.0071 14.8451 27.9732 14.7667C27.9393 14.6883 27.8759 14.6266 27.7969 14.5953C27.718 14.5641 27.6299 14.5657 27.5522 14.5999C27.4744 14.6341 27.4133 14.6981 27.3823 14.7778L26.3272 17.4847C25.5456 17.2825 24.732 17.5434 24.1529 18.2015C23.8211 18.58 23.4992 19.1449 23.4992 19.6783L23.4885 19.6904C23.4352 19.7679 22.9556 20.4396 22.5329 20.17C22.4106 20.0919 22.4931 19.7951 22.5883 19.499C22.6025 19.4532 22.6167 19.4101 22.6288 19.3686C22.6345 19.3492 22.6401 19.3299 22.6458 19.3091C22.6669 19.2272 22.6553 19.1402 22.6134 19.0669C22.5716 18.9936 22.5028 18.9398 22.422 18.9171C22.3412 18.8945 22.2548 18.9047 22.1814 18.9457C22.1081 18.9867 22.0536 19.0552 22.0298 19.1363C21.9026 19.5994 21.5033 20.2654 20.927 20.1987C20.8621 20.1948 20.7992 20.1745 20.744 20.1399C20.6888 20.1052 20.643 20.0572 20.6108 20.0001C20.5014 19.8137 20.4957 19.5112 20.5966 19.2653C20.9036 18.5191 21.6575 18.175 22.3893 18.4474C22.4288 18.462 22.4706 18.4687 22.5126 18.467C22.5546 18.4653 22.5958 18.4553 22.634 18.4375C22.6721 18.4197 22.7064 18.3946 22.7349 18.3634C22.7634 18.3323 22.7855 18.2958 22.8 18.256C22.8145 18.2162 22.8211 18.174 22.8195 18.1316C22.8178 18.0893 22.8078 18.0477 22.7902 18.0092C22.7726 17.9707 22.7477 17.9361 22.7168 17.9074C22.6859 17.8786 22.6497 17.8563 22.6103 17.8417C21.5445 17.4459 20.4495 17.9406 20.0062 19.018C19.8726 19.3441 19.8499 19.7055 19.9415 20.046C19.9369 20.0479 19.9324 20.05 19.928 20.0525C19.7743 20.1419 19.6036 20.1974 19.4271 20.2152C19.177 20.2396 18.887 20.1435 18.8174 19.8783C18.7329 19.5542 18.7975 19.1736 18.8792 18.8546C18.9545 18.5621 19.432 17.2667 19.459 17.2696C20.0186 17.3312 20.5841 17.2357 21.0933 16.9936C21.5438 16.7821 22.2479 16.1986 22.4199 15.5498C22.4622 15.4058 22.4714 15.2539 22.4468 15.1057C22.4222 14.9575 22.3644 14.8169 22.2778 14.6946C21.9332 14.2072 21.212 14.2251 20.6876 14.448C19.82 14.8165 19.3631 15.6667 19.0427 16.5269C18.705 16.4219 18.3879 16.2587 18.1055 16.0445C18.0717 16.0193 18.0333 16.0011 17.9925 15.9908C17.9518 15.9806 17.9094 15.9786 17.8679 15.9849C17.8264 15.9912 17.7865 16.0057 17.7505 16.0275C17.7145 16.0494 17.6831 16.0781 17.6582 16.1122C17.6332 16.1463 17.6151 16.185 17.605 16.2261C17.5949 16.2672 17.5929 16.31 17.5991 16.3519C17.6053 16.3938 17.6197 16.434 17.6413 16.4703C17.663 16.5067 17.6915 16.5383 17.7253 16.5635C18.0595 16.816 18.4335 17.0099 18.8316 17.137C18.8098 17.2044 18.7885 17.271 18.7677 17.337L18.7556 17.3743C18.7151 17.4983 18.5225 17.9513 18.3108 18.4596C18.1988 18.7426 18.0692 19.0182 17.9228 19.2847C17.6741 19.6962 17.2201 20.1679 16.8705 20.2317C16.8202 20.243 16.768 20.2424 16.7179 20.23C16.6679 20.2175 16.6214 20.1936 16.582 20.16C16.4776 20.0783 16.6034 19.6761 16.6638 19.4825C16.6815 19.4252 16.6986 19.3714 16.7128 19.3213C16.7125 19.3177 16.7125 19.3141 16.7128 19.3105C16.7131 19.3084 16.7131 19.3062 16.7128 19.3041C16.7339 19.2222 16.7222 19.1352 16.6804 19.0619C16.6385 18.9885 16.5698 18.9348 16.4889 18.9121C16.4081 18.8894 16.3217 18.8997 16.2484 18.9407C16.175 18.9817 16.1206 19.0502 16.0967 19.1313C15.9681 19.5944 15.5695 20.2568 14.9947 20.1908C14.9298 20.1869 14.8668 20.1666 14.8116 20.132C14.7564 20.0973 14.7107 20.0493 14.6785 19.9922C14.5691 19.8059 14.5634 19.5033 14.6643 19.2575C14.9805 18.489 15.659 18.1678 16.3859 18.4395C16.4655 18.4691 16.5535 18.4655 16.6306 18.4296C16.7076 18.3937 16.7673 18.3284 16.7966 18.2481C16.8259 18.1678 16.8224 18.079 16.7868 18.0013C16.7512 17.9236 16.6865 17.8633 16.6069 17.8338C15.5603 17.4445 14.5186 17.9284 14.0738 19.0101C13.8955 19.4446 13.9161 19.9585 14.1271 20.3198C14.2101 20.4627 14.3255 20.5837 14.4638 20.6728C14.6022 20.7619 14.7595 20.8166 14.9229 20.8324C15.1194 20.8533 15.318 20.8316 15.5055 20.7688C15.693 20.706 15.865 20.6035 16.01 20.4682C16.0555 20.5444 16.1148 20.6113 16.1848 20.6654C16.3575 20.8047 16.572 20.8806 16.7931 20.8804C16.8562 20.8803 16.9192 20.8745 16.9814 20.8632C17.4908 20.7693 17.9271 20.3335 18.1936 20.003C18.2341 20.2189 18.3457 20.4147 18.5105 20.5586C18.7393 20.7598 19.0348 20.8668 19.3382 20.8582C19.6593 20.8542 19.9739 20.7662 20.2513 20.603C20.2595 20.5999 20.2676 20.5963 20.2755 20.5923C20.4386 20.7329 20.6404 20.8202 20.8538 20.8424C21.0515 20.8634 21.2513 20.8413 21.4397 20.7776C21.6281 20.7139 21.8008 20.6101 21.9459 20.4733C22.0073 20.5723 22.0904 20.6557 22.189 20.717C22.3568 20.8236 22.5512 20.88 22.7496 20.8797C23.0587 20.8797 23.409 20.7442 23.7486 20.3879C23.848 20.5054 23.9685 20.6027 24.1039 20.6747C24.2664 20.7628 24.448 20.8089 24.6325 20.8087C24.7853 20.8074 24.9366 20.7788 25.0795 20.7242C25.3003 20.6382 25.5027 20.5101 25.6756 20.3471C25.7104 20.4307 25.7561 20.5093 25.8113 20.5808C25.8876 20.6764 25.9831 20.7546 26.0915 20.8103C26.1998 20.866 26.3187 20.898 26.4401 20.9041C26.4735 20.9041 26.5062 20.9077 26.5382 20.9077C27.3866 20.9077 27.8783 20.1069 27.8996 20.0711C27.94 19.9982 27.9508 19.9125 27.9297 19.8317C27.9087 19.751 27.8575 19.6817 27.7869 19.6383C27.7162 19.5948 27.6317 19.5807 27.5509 19.5989C27.4702 19.617 27.3996 19.666 27.3539 19.7356C27.3539 19.7406 26.9986 20.2976 26.4856 20.2603C26.4528 20.2602 26.4204 20.2526 26.3908 20.2381C26.3613 20.2236 26.3354 20.2025 26.3151 20.1765C26.0309 19.8216 26.2952 19.3478 26.4338 18.9908L26.9546 17.6474C27.1441 17.1547 27.3354 16.6622 27.5287 16.1699C27.6594 15.833 27.7904 15.4956 27.9216 15.1577L27.9778 15.0136ZM20.932 15.0444C21.229 14.9183 21.6276 14.8932 21.7541 15.0717C21.7859 15.1166 21.8066 15.1685 21.8144 15.2232C21.8222 15.2778 21.8169 15.3335 21.7989 15.3857C21.6923 15.79 21.1544 16.2567 20.8155 16.4129L20.7963 16.423C20.4478 16.585 20.0653 16.6588 19.6822 16.638C19.9543 15.9398 20.3167 15.3061 20.932 15.0444ZM25.5989 19.3679C25.4759 19.684 25.1583 20.0066 24.8606 20.1177C24.7886 20.1494 24.7105 20.1646 24.632 20.1621C24.5535 20.1596 24.4765 20.1395 24.4066 20.1034C24.2062 19.9958 24.1621 19.8668 24.1465 19.7793C24.0861 19.4403 24.3554 18.9463 24.6318 18.6324C24.9594 18.2596 25.3729 18.0639 25.8021 18.0639C25.9004 18.064 25.9985 18.0741 26.0948 18.094C25.8177 18.8108 25.6045 19.3614 25.5989 19.3679V19.3679Z" fill="white"/>
<path d="M21.3996 21.8753C20.4248 22.9384 18.9518 23.2832 17.022 22.8997C15.1291 22.5233 13.5822 21.6021 13.4124 21.4989C13.1722 21.3555 12.9641 21.2122 12.7679 21.0788C12.6164 20.4435 12.3772 19.8327 12.0574 19.2645C11.9863 19.1369 11.9153 19.0085 11.8442 18.8802C11.3064 17.9254 10.7983 17.0235 11.2005 15.9174C11.6005 14.9332 12.4269 14.2686 13.3072 14.2235C13.3741 14.2202 13.441 14.2219 13.5076 14.2285C13.6838 14.2462 13.8561 14.2914 14.0185 14.3625C13.8973 14.4363 13.7813 14.5182 13.671 14.6077C13.0081 15.1475 12.7125 15.8206 12.9115 16.4981C12.9552 16.6587 13.036 16.8066 13.1471 16.9298C13.2582 17.053 13.3966 17.148 13.551 17.2071C13.7503 17.2757 13.9625 17.2981 14.1717 17.2725C14.3808 17.2469 14.5815 17.1741 14.7589 17.0594C15.2321 16.7626 15.5213 16.2371 15.5007 15.5654C15.4915 15.219 15.3936 14.8809 15.2165 14.5841C15.9429 14.4555 16.691 14.5911 17.3275 14.9669C17.364 14.988 17.4042 15.0017 17.4458 15.0071C17.4875 15.0126 17.5299 15.0097 17.5704 14.9987C17.611 14.9876 17.649 14.9686 17.6823 14.9427C17.7156 14.9169 17.7435 14.8846 17.7645 14.8479C17.7854 14.8111 17.799 14.7705 17.8044 14.7285C17.8098 14.6864 17.807 14.6437 17.796 14.6028C17.7851 14.5618 17.7662 14.5235 17.7406 14.4899C17.7149 14.4563 17.683 14.4281 17.6465 14.407C17.2109 14.15 16.728 13.9851 16.2272 13.9223C15.7264 13.8594 15.2181 13.9 14.7333 14.0414C14.7113 14.0249 14.6893 14.0084 14.6658 13.9926C14.3392 13.7643 13.96 13.6244 13.5645 13.5862C13.4669 13.5767 13.3689 13.5743 13.271 13.579C12.1427 13.6371 11.0953 14.4615 10.6029 15.6787L10.5986 15.6887C10.0899 17.0787 10.7244 18.2056 11.285 19.2014C11.3561 19.3268 11.4271 19.4516 11.4939 19.5763C11.6622 19.8832 11.8096 20.2012 11.9352 20.5283C11.4472 20.2274 10.9042 20.0285 10.3386 19.9433C9.2884 19.7706 8.39027 19.9684 7.66978 20.5319C6.79865 21.2129 6.41425 22.2853 6.3503 22.9972C6.27924 23.8259 6.52083 24.5886 7.04095 25.1477C7.56106 25.7069 8.30359 26.008 9.1399 26.008H9.25643C10.853 25.9549 12.019 25.0725 12.6287 23.4581C12.8122 22.9716 12.8965 22.4528 12.8767 21.9326C12.9413 21.9742 13.0088 22.0158 13.0785 22.0588C13.2589 22.1685 14.8946 23.1427 16.8955 23.5405C19.0271 23.9642 20.7467 23.5405 21.8693 22.3219C21.927 22.259 21.9575 22.1757 21.9543 22.0901C21.951 22.0045 21.9142 21.9238 21.8519 21.8656C21.7896 21.8074 21.707 21.7766 21.6222 21.7799C21.5374 21.7832 21.4573 21.8203 21.3996 21.8832V21.8753ZM14.5862 14.7855C14.7623 15.0137 14.8601 15.2935 14.8648 15.5826C14.8783 16.0221 14.702 16.3354 14.4249 16.5095C14.3308 16.572 14.2241 16.6126 14.1126 16.6286C14.0011 16.6446 13.8874 16.6355 13.7798 16.602C13.717 16.5791 13.6609 16.541 13.6163 16.491C13.5717 16.4409 13.54 16.3806 13.524 16.3153C13.3421 15.6959 13.902 15.2486 14.0718 15.1102C14.2295 14.9812 14.4023 14.8721 14.5862 14.7855V14.7855ZM12.0332 23.2201C11.516 24.5922 10.5752 25.3105 9.23866 25.3556C8.5402 25.3793 7.92629 25.1456 7.50849 24.6997C7.11626 24.2803 6.93223 23.6961 6.98979 23.0509C7.04237 22.4688 7.35501 21.5921 8.06413 21.038C8.50112 20.696 9.02834 20.5247 9.63799 20.5247C9.83915 20.5256 10.0399 20.5426 10.2384 20.5756C11.1024 20.719 11.5671 21.0308 12.196 21.4638C12.3004 22.0533 12.2441 22.6603 12.0332 23.2201V23.2201Z" fill="white"/>
<path d="M6.95782 7.00019C7.20084 6.99659 7.44201 7.04333 7.6664 7.13754C7.89079 7.23174 8.09364 7.3714 8.26238 7.54788C8.43564 7.71913 8.57396 7.92298 8.66953 8.14789C8.76203 8.37522 8.80818 8.61903 8.80524 8.86475C8.80524 9.35908 8.6106 9.83315 8.26414 10.1827C7.91768 10.5322 7.44779 10.7286 6.95782 10.7286H6.24727C6.21432 10.7288 6.18168 10.7222 6.15135 10.7092C6.12228 10.6965 6.0956 10.6788 6.07248 10.6569C6.05015 10.6344 6.03208 10.6079 6.01919 10.5788C6.0063 10.5482 5.99977 10.5152 6.00001 10.482V7.24751C5.99977 7.21427 6.0063 7.18133 6.01919 7.15074C6.03208 7.12163 6.05015 7.09515 6.07248 7.0726C6.09541 7.05048 6.12214 7.03275 6.15135 7.02027C6.18163 7.00704 6.21428 7.00021 6.24727 7.00019H6.95782ZM6.95782 10.234C7.13615 10.2368 7.31316 10.2027 7.47791 10.1338C7.64266 10.0649 7.79164 9.96257 7.91563 9.83323C8.04532 9.70853 8.14786 9.55796 8.21673 9.3911C8.2856 9.22424 8.31929 9.04475 8.31567 8.86404C8.31362 8.50135 8.1699 8.15411 7.9157 7.89764C7.6615 7.64118 7.31731 7.49618 6.95782 7.49411H6.49099V10.234H6.95782Z" fill="white"/>
<path d="M9.6565 10.4834V9.47982C9.65622 9.44782 9.66223 9.41608 9.67417 9.38644C9.68612 9.35679 9.70376 9.32983 9.72609 9.3071C9.74842 9.28437 9.77499 9.26633 9.80427 9.25402C9.83355 9.24171 9.86495 9.23537 9.89667 9.23537C9.92833 9.23497 9.95973 9.24113 9.98894 9.25346C10.0182 9.26579 10.0445 9.28403 10.0665 9.30706C10.1118 9.35326 10.1373 9.41555 10.1375 9.48054V10.4841C10.1375 10.5492 10.1119 10.6115 10.0665 10.6576C10.0328 10.6916 9.98979 10.7148 9.943 10.724C9.89621 10.7333 9.84774 10.7284 9.80377 10.7097C9.7598 10.6911 9.72231 10.6597 9.69609 10.6196C9.66986 10.5794 9.65608 10.5322 9.6565 10.4841V10.4834Z" fill="white"/>
<path d="M14.4775 10.4834V9.47982C14.4773 9.44782 14.4833 9.41608 14.4952 9.38644C14.5072 9.35679 14.5248 9.32983 14.5471 9.3071C14.5695 9.28437 14.596 9.26633 14.6253 9.25402C14.6546 9.24171 14.686 9.23537 14.7177 9.23537C14.7494 9.23497 14.7808 9.24113 14.81 9.25346C14.8392 9.26579 14.8656 9.28403 14.8875 9.30706C14.9328 9.35326 14.9583 9.41555 14.9586 9.48054V10.4841C14.9585 10.5492 14.933 10.6115 14.8875 10.6576C14.8538 10.6916 14.8108 10.7148 14.764 10.724C14.7173 10.7333 14.6688 10.7284 14.6248 10.7097C14.5808 10.6911 14.5434 10.6597 14.5171 10.6196C14.4909 10.5794 14.4771 10.5322 14.4775 10.4841V10.4834Z" fill="white"/>
<path d="M13.1183 10.4415C12.9572 10.5721 12.7674 10.6617 12.5648 10.7031C12.3622 10.7444 12.1528 10.7362 11.954 10.6791C11.7552 10.622 11.5729 10.5177 11.4223 10.3749C11.2717 10.2321 11.1571 10.055 11.0883 9.85841C11.0195 9.66181 10.9983 9.45143 11.0266 9.24488C11.0549 9.03833 11.1318 8.84162 11.2509 8.67122C11.37 8.50082 11.5279 8.36169 11.7112 8.26547C11.8946 8.16925 12.0981 8.11874 12.3048 8.11816C12.6477 8.11816 12.9767 8.25562 13.2192 8.5003C13.4617 8.74498 13.598 9.07683 13.598 9.42285V10.7182C13.5986 10.8262 13.5813 10.9336 13.5468 11.0358C13.5136 11.1336 13.4656 11.2258 13.4047 11.3089C13.3438 11.3931 13.2721 11.4688 13.1915 11.534C13.1102 11.6006 13.0215 11.6573 12.9272 11.7032C12.8322 11.7488 12.7326 11.7841 12.6302 11.8086C12.529 11.8333 12.4252 11.8458 12.3211 11.8459C12.1988 11.846 12.077 11.8301 11.9587 11.7985C11.8404 11.7661 11.7269 11.7179 11.6212 11.6552C11.5137 11.5923 11.4154 11.5146 11.3292 11.4243C11.2403 11.3329 11.1645 11.2294 11.1039 11.1168C11.0783 11.0783 11.0653 11.0327 11.067 10.9863C11.0663 10.954 11.0723 10.9219 11.0845 10.8921C11.0967 10.8622 11.115 10.8352 11.138 10.8129C11.1605 10.7897 11.1874 10.7714 11.2171 10.7591C11.2468 10.7468 11.2786 10.7407 11.3107 10.7412C11.3513 10.7397 11.3914 10.7512 11.4251 10.7741C11.473 10.8156 11.5146 10.8639 11.5487 10.9175C11.5912 10.9782 11.6387 11.035 11.6909 11.0874C11.859 11.2564 12.0864 11.3517 12.3238 11.3525C12.5611 11.3533 12.7892 11.2596 12.9585 11.0917C13.0543 10.9879 13.1109 10.8534 13.1183 10.7118V10.4415ZM12.3048 8.60563C12.1951 8.60454 12.0864 8.62677 11.9857 8.67086C11.8899 8.71233 11.8028 8.77195 11.7292 8.8465C11.6566 8.92159 11.5983 9.00957 11.5573 9.106C11.5155 9.20633 11.494 9.31404 11.494 9.42285C11.494 9.53166 11.5155 9.63938 11.5573 9.73971C11.5981 9.83645 11.6564 9.92469 11.7292 9.99993C11.8028 10.0745 11.8899 10.1341 11.9857 10.1756C12.0862 10.2186 12.1942 10.2408 12.3033 10.2408C12.4125 10.2408 12.5205 10.2186 12.621 10.1756C12.7172 10.1339 12.8046 10.0737 12.8782 9.99849C12.9516 9.92377 13.0104 9.83572 13.0515 9.73899C13.0937 9.63916 13.1155 9.53174 13.1155 9.42321C13.1155 9.31468 13.0937 9.20727 13.0515 9.10743C13.0104 9.0107 12.9516 8.92266 12.8782 8.84793C12.8046 8.77269 12.7172 8.71256 12.621 8.67086C12.5212 8.62704 12.4135 8.60482 12.3048 8.60563V8.60563Z" fill="white"/>
<path d="M15.1219 8.5162C15.122 8.58306 15.1058 8.64892 15.0746 8.70794C15.0434 8.76695 14.9983 8.81729 14.9433 8.85451C14.8882 8.89172 14.8249 8.91466 14.7589 8.92128C14.693 8.9279 14.6264 8.918 14.5652 8.89247C14.5039 8.86693 14.4499 8.82654 14.4078 8.77488C14.3657 8.72322 14.3369 8.66189 14.3239 8.59631C14.311 8.53074 14.3143 8.46295 14.3335 8.39896C14.3527 8.33496 14.3873 8.27674 14.4341 8.22945C14.4904 8.17263 14.5621 8.13392 14.6402 8.1182C14.7183 8.10249 14.7993 8.11048 14.8729 8.14116C14.9465 8.17185 15.0094 8.22385 15.0538 8.2906C15.0981 8.35735 15.1218 8.43585 15.1219 8.5162V8.5162Z" fill="white"/>
<path d="M10.3011 8.5162C10.3012 8.58306 10.285 8.64892 10.2538 8.70794C10.2226 8.76695 10.1775 8.81729 10.1225 8.85451C10.0674 8.89172 10.0041 8.91466 9.93813 8.92128C9.87218 8.9279 9.80563 8.918 9.74438 8.89247C9.68313 8.86693 9.62906 8.82654 9.58698 8.77488C9.5449 8.72322 9.51611 8.66189 9.50314 8.59631C9.49018 8.53074 9.49345 8.46295 9.51267 8.39896C9.53189 8.33496 9.56645 8.27674 9.61331 8.22945C9.66961 8.17263 9.74134 8.13392 9.81944 8.1182C9.89754 8.10249 9.9785 8.11048 10.0521 8.14116C10.1257 8.17185 10.1886 8.22385 10.233 8.2906C10.2773 8.35735 10.301 8.43585 10.3011 8.5162V8.5162Z" fill="white"/>
</svg>
