<svg width="90" height="64" viewBox="0 0 90 64" fill="none" xmlns="http://www.w3.org/2000/svg">
<g clip-path="url(#clip0_2_670)">
<path d="M71.1973 23.6442C71.016 21.6846 71.1547 16.3575 76.2578 8.94999C76.6438 8.391 76.5738 7.63711 76.0944 7.15786C74.0139 5.07732 72.7257 3.76444 71.8222 2.84574C70.6342 1.63439 70.0918 1.08244 69.298 0.362722C68.768 -0.113716 67.966 -0.122013 67.4304 0.345003C58.5356 8.08486 48.6561 24.0781 50.0857 43.6723C50.9234 55.1776 59.3156 63.5287 70.0397 63.5287C81.0451 63.5287 89.999 54.5762 89.999 43.5706C89.999 32.9537 81.666 24.247 71.1973 23.6442ZM70.0397 60.7162C60.8303 60.7162 53.6192 53.4624 52.89 43.4691C52.89 43.4691 52.89 43.4691 52.89 43.4677C51.2818 21.4305 64.3816 7.11666 68.3395 3.32639C68.7254 3.70678 69.1662 4.15439 69.8158 4.81632C70.5985 5.61282 71.6698 6.70322 73.2902 8.32927C67.0953 17.8736 68.264 24.6741 68.7761 25.6492C69.0193 26.112 69.5178 26.4238 70.0397 26.4238C79.4947 26.4238 87.1865 34.1155 87.1865 43.5706C87.1865 53.0244 79.4947 60.7162 70.0397 60.7162Z" fill="white"/>
<path d="M21.2535 23.6441C21.0709 21.6899 21.2054 16.367 26.3141 8.94988C26.6987 8.3909 26.6299 7.63701 26.1507 7.15776C24.0742 5.08129 22.7875 3.76982 21.8852 2.85111C20.6933 1.6371 20.1493 1.0836 19.3557 0.362615C18.8255 -0.113823 18.0235 -0.120714 17.488 0.343489C8.59321 8.08335 -1.28767 24.074 0.139115 43.6722V43.6736C0.97963 55.1775 9.37312 63.5286 20.0972 63.5286C31.1028 63.5286 40.0566 54.5761 40.0566 43.5705C40.0566 32.9523 31.7235 24.2443 21.2535 23.6441ZM20.0972 60.7161C10.8893 60.7161 3.67401 53.4623 2.94346 43.4676V43.469C1.33949 21.4263 14.4393 7.11515 18.397 3.32629C18.7843 3.70668 19.2266 4.1571 19.8775 4.82043C20.6588 5.61693 21.7287 6.70593 23.3465 8.32916C17.1515 17.8749 18.3202 24.674 18.8324 25.6477C19.0755 26.1105 19.5753 26.4237 20.0972 26.4237C29.5524 26.4237 37.2441 34.1154 37.2441 43.5705C37.2441 53.0243 29.5524 60.7161 20.0972 60.7161Z" fill="white"/>
</g>
<defs>
<clipPath id="clip0_2_670">
<rect width="89.9982" height="64" fill="white" transform="translate(0.000835419)"/>
</clipPath>
</defs>
</svg>
